<?xml version="1.0" standalone="no"?>
<!DOCTYPE svg PUBLIC "-//W3C//DTD SVG 20010904//EN"
 "http://www.w3.org/TR/2001/REC-SVG-20010904/DTD/svg10.dtd">
<svg version="1.0" xmlns="http://www.w3.org/2000/svg"
 width="500.000000pt" height="500.000000pt" viewBox="0 0 500.000000 500.000000"
 preserveAspectRatio="xMidYMid meet">

<g transform="translate(0.000000,500.000000) scale(0.100000,-0.100000)"
fill="#000000" stroke="none">
<path d="M2321 3780 c-40 -6 -119 -22 -174 -37 l-101 -27 89 -14 c68 -10 106
-10 157 -2 98 15 293 12 387 -5 218 -42 383 -121 562 -270 215 -179 376 -489
396 -762 3 -46 8 -83 10 -83 3 0 19 10 36 22 18 12 33 22 35 23 2 2 -4 48 -12
105 -52 343 -243 647 -530 841 -149 101 -272 154 -441 190 -106 22 -310 32
-414 19z"/>
<path d="M1935 3640 c-172 -20 -460 -73 -645 -120 -42 -11 -86 -17 -98 -13
-14 3 -29 -1 -40 -10 -9 -9 -87 -39 -172 -67 -178 -58 -381 -153 -434 -203
-45 -43 -48 -79 -9 -104 23 -15 50 -18 165 -18 90 0 141 4 149 12 25 25 -4 33
-129 34 -70 0 -135 4 -145 8 -17 6 -16 8 5 28 36 32 98 68 179 103 87 38 352
131 357 126 2 -2 -4 -37 -12 -77 -16 -78 -60 -396 -72 -515 -3 -40 -9 -76 -13
-82 -3 -5 -42 -28 -87 -50 -123 -62 -180 -116 -153 -148 6 -8 23 -14 36 -14
20 0 24 4 20 20 -4 16 7 28 61 59 37 22 79 43 94 46 26 7 28 5 23 -21 -9 -52
-34 -349 -46 -541 -13 -214 -9 -308 15 -331 27 -27 40 -1 38 76 -6 138 53 840
72 859 12 13 190 81 281 108 33 9 89 20 125 24 49 4 66 10 68 22 8 42 -157 25
-318 -32 -134 -48 -160 -54 -160 -43 0 60 96 632 110 653 8 14 153 51 365 95
390 81 600 95 643 45 24 -28 44 -24 40 9 -6 57 -131 82 -313 62z"/>
<path d="M1721 3495 c-59 -12 -68 -17 -138 -86 -80 -80 -171 -206 -223 -309
-35 -69 -83 -190 -78 -196 8 -8 88 20 88 30 0 26 112 236 160 301 67 90 118
143 208 216 40 32 67 58 60 58 -7 -1 -42 -7 -77 -14z"/>
<path d="M2808 3069 c-30 -17 -87 -238 -104 -400 l-7 -67 -77 -4 c-56 -2 -83
-8 -97 -21 -11 -9 -23 -17 -27 -17 -4 0 -6 32 -5 71 2 52 -2 73 -12 80 -24 14
-39 -13 -47 -84 -8 -60 -13 -72 -47 -107 -96 -98 -174 -72 -183 62 -8 120 -35
117 -109 -12 -32 -55 -61 -100 -64 -100 -9 0 8 73 25 113 23 53 74 116 100
123 17 4 35 -1 53 -14 15 -10 33 -17 39 -15 18 6 5 41 -24 63 -55 44 -134 12
-187 -75 -16 -27 -55 -75 -86 -106 -126 -128 -267 -147 -272 -38 -2 26 2 34
18 37 33 7 102 60 124 96 28 44 26 72 -4 92 -35 23 -85 4 -134 -53 -49 -55
-65 -99 -59 -170 4 -45 10 -60 37 -86 28 -29 37 -32 89 -32 46 1 68 7 113 33
31 18 62 39 69 47 20 24 30 17 30 -21 0 -50 15 -74 49 -74 33 0 60 27 95 97
26 52 46 75 46 52 0 -28 42 -96 69 -112 48 -28 103 -22 155 18 26 19 49 35 52
35 4 0 4 -27 1 -60 -7 -78 0 -102 27 -98 18 3 22 12 27 58 7 60 30 124 56 152
12 14 31 18 84 18 l67 0 4 -157 c5 -172 21 -237 62 -252 49 -19 89 32 171 212
26 59 51 107 54 107 3 0 16 -11 29 -25 57 -60 181 -33 284 62 l27 25 65 -58
c101 -90 101 -90 22 -176 -86 -94 -128 -177 -124 -243 9 -135 161 -98 238 58
41 84 56 163 42 219 -11 41 -10 44 21 75 18 17 67 56 111 85 l78 54 79 -78
c44 -43 79 -84 79 -89 0 -6 -29 -43 -65 -81 -84 -90 -127 -177 -123 -243 9
-135 161 -98 238 58 41 84 56 163 42 219 -14 53 -11 56 148 171 110 79 128 99
97 105 -13 3 -173 -100 -249 -160 l-26 -21 -39 39 c-21 22 -55 54 -76 72 -20
19 -37 40 -37 47 0 19 47 73 71 80 14 5 19 14 17 28 -7 53 -101 16 -136 -54
-15 -30 -46 -58 -122 -112 -57 -40 -111 -78 -121 -85 -16 -12 -22 -9 -56 25
-21 21 -55 53 -76 71 -20 19 -37 38 -37 44 0 24 42 76 65 82 28 7 35 43 10 52
-44 17 -116 -40 -137 -108 -9 -30 -25 -50 -63 -79 -98 -74 -177 -90 -214 -43
-36 46 -28 67 36 100 98 50 142 150 77 174 -69 27 -175 -82 -188 -192 -6 -50
-131 -319 -166 -356 -28 -30 -37 -21 -51 53 -21 111 14 437 71 663 17 64 30
124 30 133 0 21 -21 30 -42 18z m-1034 -406 c-23 -29 -84 -69 -84 -54 0 20 92
107 97 92 3 -7 -3 -24 -13 -38z m1348 0 c-24 -33 -82 -70 -82 -52 0 19 92 106
97 92 3 -7 -4 -25 -15 -40z m347 -507 c-23 -62 -98 -151 -121 -144 -7 3 -14
21 -16 41 -4 48 35 126 101 202 l52 59 3 -50 c2 -34 -4 -70 -19 -108z m480 89
c-4 -38 -17 -87 -33 -119 -28 -56 -89 -120 -109 -113 -23 7 -19 74 8 129 24
50 118 168 134 168 4 0 4 -29 0 -65z"/>
<path d="M1272 2707 c-43 -13 -46 -29 -39 -201 5 -149 21 -240 63 -364 23 -71
96 -227 112 -244 4 -4 20 3 35 15 l27 22 -40 80 c-46 91 -94 237 -111 340 -6
39 -12 136 -12 218 0 81 -1 147 -1 146 -1 -1 -16 -6 -34 -12z"/>
<path d="M3668 2389 c-33 -27 -38 -37 -38 -72 0 -116 -46 -248 -115 -332 l-34
-42 30 -22 c17 -13 32 -21 34 -19 12 12 87 176 108 233 34 95 73 285 59 285
-4 -1 -24 -14 -44 -31z"/>
<path d="M1441 1816 c-47 -47 -52 -57 -41 -71 12 -14 15 -14 36 6 l24 22 21
-27 c17 -22 24 -24 35 -15 13 10 11 16 -11 39 -23 24 -24 28 -10 40 13 11 20
9 45 -15 16 -15 33 -24 40 -20 8 5 -2 22 -31 51 -24 24 -46 44 -49 44 -3 0
-30 -25 -59 -54z"/>
<path d="M3421 1841 c-62 -58 -26 -120 50 -85 22 9 42 14 46 11 8 -9 -27 -47
-44 -47 -7 0 -13 -9 -13 -20 0 -25 7 -25 48 0 42 26 58 60 42 90 -12 23 -17
23 -94 4 -22 -5 -28 -4 -24 7 2 8 14 18 26 24 23 10 26 35 6 42 -6 2 -25 -10
-43 -26z"/>
<path d="M1704 1613 c-15 -27 -33 -57 -40 -68 -13 -19 -10 -23 42 -55 38 -22
58 -30 65 -23 7 7 0 18 -23 34 -18 12 -35 24 -37 25 -2 2 -1 10 2 18 5 14 11
13 41 -5 25 -15 36 -17 42 -8 7 11 -8 27 -46 49 -12 7 -12 11 -3 21 9 9 20 7
47 -9 28 -16 37 -18 45 -8 8 10 -1 21 -40 45 -28 17 -54 31 -59 31 -4 0 -21
-21 -36 -47z"/>
<path d="M3164 1638 c-32 -15 -51 -55 -37 -76 8 -13 24 -17 62 -16 35 1 51 -2
51 -11 0 -14 -22 -25 -51 -25 -13 0 -19 -7 -19 -21 0 -19 4 -21 32 -15 51 10
78 33 78 66 0 38 -24 50 -79 43 -34 -5 -43 -3 -39 8 2 7 19 17 37 22 18 4 31
13 28 20 -5 16 -37 19 -63 5z"/>
<path d="M2016 1458 c-30 -106 -30 -108 -8 -108 15 0 21 9 26 35 8 43 26 56
26 18 0 -16 6 -38 14 -48 13 -17 15 -17 45 16 35 37 35 35 15 -38 -5 -18 -2
-23 14 -23 16 0 23 12 36 68 9 37 17 72 17 77 0 24 -36 14 -71 -20 l-37 -37
-8 49 c-12 81 -47 86 -69 11z"/>
<path d="M2843 1494 c-24 -9 -43 -19 -43 -24 0 -10 41 -144 45 -149 5 -4 108
30 119 39 4 5 5 13 2 19 -4 6 -20 5 -48 -5 -50 -17 -48 -18 -48 5 0 12 11 21
33 27 17 6 32 16 32 24 0 16 -2 16 -52 5 -51 -10 -44 21 7 36 41 13 49 32 14
36 -10 1 -38 -5 -61 -13z"/>
<path d="M2410 1371 c0 -78 6 -101 26 -101 10 0 14 15 15 53 l0 52 22 -42 c11
-24 27 -43 34 -43 7 0 21 19 32 43 l19 42 1 -53 c1 -45 4 -53 19 -50 14 3 17
16 20 86 l3 82 -26 0 c-21 0 -29 -9 -48 -51 l-22 -52 -24 52 c-19 40 -29 51
-48 51 -22 0 -23 -3 -23 -69z"/>
</g>
</svg>
